<svg width="140" height="140" viewBox="0 0 140 140" fill="none" xmlns="http://www.w3.org/2000/svg">
<g id="Icon" opacity="0.4" clip-path="url(#clip0_529_20106)">
<path id="Icon_2" d="M122.279 61.4483L23.7982 44.0835M20.3253 63.7796L37.7892 66.859C40.4492 67.328 41.7791 67.5625 43.0247 68.0185C44.1303 68.4233 45.1844 68.9568 46.1653 69.608C47.2703 70.3417 48.2468 71.2746 50.1999 73.1403L52.7267 75.5542C54.6797 77.4199 55.6562 78.3527 56.7613 79.0864C57.7421 79.7377 58.7962 80.2712 59.9018 80.6759C61.1474 81.1319 62.4774 81.3664 65.1373 81.8355L70.521 82.7848C73.181 83.2538 74.5109 83.4883 75.8374 83.4858C77.0147 83.4836 78.1877 83.3428 79.3322 83.0663C80.6215 82.7548 81.8582 82.2122 84.3315 81.1269L87.5316 79.7229C90.0049 78.6377 91.2416 78.0951 92.531 77.7835C93.6754 77.507 94.8484 77.3662 96.0257 77.364C97.3522 77.3615 98.6822 77.5961 101.342 78.0651L118.806 81.1444M24.927 37.6822L16.5918 84.953C15.6193 90.4684 15.1331 93.2261 15.835 95.522C16.4524 97.5415 17.6933 99.3137 19.3799 100.585C21.2972 102.029 24.055 102.516 29.5704 103.488L96.5373 115.296C102.053 116.269 104.81 116.755 107.106 116.053C109.126 115.436 110.898 114.195 112.169 112.508C113.614 110.591 114.1 107.833 115.073 102.318L123.408 55.047C124.38 49.5316 124.867 46.7739 124.165 44.478C123.547 42.4585 122.306 40.6863 120.62 39.4154C118.702 37.9705 115.945 37.4843 110.429 36.5117L43.4623 24.7037C37.9468 23.7311 35.1891 23.2449 32.8932 23.9468C30.8737 24.5642 29.1015 25.8051 27.8306 27.4917C26.3857 29.4091 25.8995 32.1668 24.927 37.6822Z" stroke="white" stroke-width="10" stroke-linecap="round" stroke-linejoin="round"/>
</g>
<defs>
<clipPath id="clip0_529_20106">
<rect width="120" height="120" fill="white" transform="translate(21.3303 0.492676) rotate(10)"/>
</clipPath>
</defs>
</svg>
