<svg width="140" height="140" viewBox="0 0 140 140" fill="none" xmlns="http://www.w3.org/2000/svg">
<g id="Icon" opacity="0.4" clip-path="url(#clip0_529_20156)">
<path id="Icon_2" d="M106.205 66.2294L37.268 54.074M106.205 66.2294L112.686 83.1465C114.139 86.9379 114.865 88.8336 115.074 90.7732C115.259 92.4919 115.145 94.2296 114.739 95.9096C114.279 97.8056 113.313 99.5907 111.379 103.161L109.815 106.051C106.853 111.521 105.372 114.256 103.197 116.087C101.276 117.704 98.9793 118.814 96.5183 119.313C93.7313 119.878 90.6684 119.338 84.5426 118.258L39.8288 110.374C33.7029 109.294 30.64 108.754 28.2145 107.269C26.0727 105.958 24.2943 104.131 23.0423 101.954C21.6246 99.4887 21.1684 96.4122 20.2559 90.2591L19.7739 87.0085C19.1783 82.9923 18.8806 80.9842 19.0975 79.0455C19.2897 77.3276 19.7774 75.6559 20.5391 74.1041C21.3987 72.3529 22.7296 70.82 25.3913 67.7541L37.268 54.074M106.205 66.2294L109.527 59.4004C111.103 56.1628 111.89 54.544 111.745 53.1279C111.619 51.8874 111.033 50.739 110.103 49.9081C109.041 48.9596 107.269 48.647 103.723 48.0218L45.8276 37.8133C42.2818 37.1881 40.5089 36.8755 39.187 37.4038C38.0291 37.8665 37.0859 38.7453 36.5424 39.8676C35.922 41.1488 36.1085 42.9393 36.4814 46.5204L37.268 54.074M74.7752 42.9176L57.3652 39.8477C54.7999 39.3954 52.5227 37.924 51.0345 35.7573C49.5462 33.5906 48.9689 30.906 49.4294 28.2942C49.89 25.6823 51.3507 23.3571 53.4902 21.83C55.6298 20.303 58.2729 19.6992 60.8381 20.1516C74.3792 22.5392 74.7752 42.9176 74.7752 42.9176ZM74.7752 42.9176L92.1851 45.9874C94.7504 46.4397 97.3935 45.836 99.533 44.3089C101.673 42.7819 103.133 40.4567 103.594 37.8448C104.054 35.2329 103.477 32.5484 101.989 30.3817C100.501 28.2149 98.2233 26.7436 95.6581 26.2913C82.117 23.9036 74.7752 42.9176 74.7752 42.9176Z" stroke="white" stroke-width="10" stroke-linecap="round" stroke-linejoin="round"/>
</g>
<defs>
<clipPath id="clip0_529_20156">
<rect width="120" height="120" fill="white" transform="translate(21.3304 0.492676) rotate(10)"/>
</clipPath>
</defs>
</svg>
